<svg width="455px" height="800px" viewBox="0 0 25 44" fill="none" xmlns="http://www.w3.org/2000/svg">
<path fill-rule="evenodd" clip-rule="evenodd" d="M7.27603 0.0906343C6.87686 0.210835 6.33251 0.819186 6.20784 1.28436C6.13558 1.55406 6.11212 2.15336 6.13092 3.24644C6.15667 4.73977 6.16852 4.83972 6.36243 5.20084C6.47483 5.41014 6.71132 5.68386 6.88798 5.8091L7.20924 6.03686L7.19175 6.58182C7.13289 8.41875 6.69963 10.2963 5.9837 11.8168C5.5036 12.8364 4.9026 13.7618 3.95303 14.9438C2.48216 16.7745 2.2178 17.1211 1.80277 17.763C1.02217 18.9701 0.539539 20.1453 0.206176 21.6501C0.0404759 22.3981 0.0351624 22.6593 0.00745036 31.2936C-0.0120871 37.4075 0.0064691 40.3061 0.0670433 40.6111C0.359614 42.084 1.40532 43.2207 2.82223 43.6064C3.52533 43.7979 21.4615 43.7979 22.1646 43.6064C23.5463 43.2303 24.5188 42.214 24.8787 40.77C24.9828 40.3523 25.0006 39.0505 25 31.8624C24.9993 23.2142 24.9776 22.5223 24.6648 21.1802C24.2298 19.3131 23.4295 17.8869 21.4768 15.4991C19.5494 13.1421 18.8411 11.8856 18.2655 9.80178C18.0341 8.96431 17.8289 7.60554 17.7925 6.67067L17.768 6.04361L18.094 5.81252C18.2733 5.6854 18.512 5.41014 18.6244 5.20084C18.8168 4.84245 18.8304 4.7331 18.857 3.32521C18.8925 1.43523 18.8204 1.04797 18.3384 0.544356C18.1347 0.331463 17.8547 0.138732 17.6721 0.0857648C17.2679 -0.0316168 7.66694 -0.027089 7.27603 0.0906343ZM17.48 1.44573C17.6306 1.60318 17.6434 1.73047 17.6434 3.06892C17.6434 4.40736 17.6306 4.53465 17.48 4.6921C17.3201 4.85911 17.2075 4.86296 12.4934 4.86296C7.77934 4.86296 7.66669 4.85911 7.50688 4.6921C7.35622 4.53465 7.34339 4.40736 7.34339 3.06892C7.34339 1.73047 7.35622 1.60318 7.50688 1.44573C7.66669 1.27872 7.77934 1.27487 12.4934 1.27487C17.2075 1.27487 17.3201 1.27872 17.48 1.44573ZM16.5331 6.33664C16.5535 6.44231 16.5906 6.87485 16.6155 7.29773C16.6711 8.24456 16.8529 9.34431 17.1027 10.2458L17.2919 10.9285H12.4848H7.67765L7.80027 10.5654C8.00897 9.94744 8.32255 8.16775 8.37069 7.3284C8.39587 6.8886 8.43331 6.44231 8.45375 6.33664L8.49094 6.14442H12.4934H16.4959L16.5331 6.33664ZM18.0447 12.7073C18.4563 13.5593 19.2264 14.6888 20.3601 16.1031C21.7237 17.8043 22.2877 18.5895 22.6652 19.3119C23.2191 20.3717 23.5931 21.6983 23.7279 23.081L23.7758 23.5723H18.7031H13.6304L13.4298 23.782C13.1846 24.0382 13.1738 24.33 13.3986 24.6286L13.568 24.8537H18.6712H23.7744V30.5348V36.216H18.7025H13.6304L13.4298 36.4257C13.1803 36.6864 13.1711 37.0374 13.4069 37.2998L13.5847 37.4974H18.6861H23.7877L23.7606 39.0138C23.736 40.3933 23.7165 40.5665 23.5446 40.9312C23.2949 41.4608 22.8321 41.9484 22.3369 42.203L21.9351 42.4097H12.4934H3.05169L2.66789 42.2121C2.17807 41.96 1.68358 41.4432 1.44235 40.9313C1.27035 40.5664 1.25082 40.3935 1.22621 39.0138L1.19915 37.4974H6.24839H11.2975L11.4868 37.3117C11.7293 37.0736 11.7343 36.6764 11.4982 36.4137L11.3204 36.216H6.26646H1.21239V30.5348V24.8537H6.25501H11.2975L11.4868 24.668C11.7293 24.4299 11.7343 24.0326 11.4982 23.7699L11.3204 23.5723H6.2636H1.20675L1.25474 23.1237C1.45992 21.2039 1.86032 19.9889 2.75364 18.5746C2.96144 18.2457 3.71466 17.2461 4.42757 16.3534C5.75611 14.6897 6.5184 13.5844 6.94209 12.7073L7.18226 12.21H12.4934H17.8046L18.0447 12.7073ZM3.18028 26.9583C3.01613 27.1763 3.01082 27.2775 3.01082 30.1952C3.01082 33.0343 3.01981 33.2186 3.1672 33.4087C3.32252 33.609 3.33552 33.6103 5.02693 33.6103C6.62908 33.6103 6.7504 33.5991 7.06896 33.421C7.5193 33.1694 7.95428 32.6239 8.08058 32.1525C8.28053 31.4062 7.99155 30.4092 7.45742 30.0025C7.2475 29.8427 7.24553 29.8327 7.37469 29.5718C7.56802 29.1809 7.54881 28.33 7.33619 27.871C7.12708 27.4196 6.63448 26.9651 6.21054 26.8324C6.02906 26.7755 5.35073 26.7332 4.6218 26.7332H3.34966L3.18028 26.9583ZM9.71927 26.8986C9.55496 27.0703 9.55054 27.1568 9.55054 30.1869V33.299L9.76594 33.476C9.96541 33.64 10.0882 33.6531 11.4269 33.6531C13.1884 33.6531 13.5653 33.5625 14.0909 33.0132C14.877 32.1917 14.873 31.0145 14.0812 30.1497L13.8068 29.85L13.9343 29.4663C14.2358 28.5581 13.8907 27.5386 13.1112 27.0344C12.7121 26.7763 12.7089 26.7758 11.2997 26.7491C9.96418 26.7238 9.87884 26.7318 9.71927 26.8986ZM17.9121 26.8521C17.0371 27.1506 16.4027 27.7529 15.9789 28.6876C15.7397 29.2154 15.7224 29.3167 15.7224 30.1949C15.7224 31.0866 15.7366 31.1666 15.9909 31.7066C16.6741 33.1567 18.0792 33.8965 19.4523 33.5288C19.7376 33.4525 20.0564 33.3314 20.1609 33.2599C20.3405 33.1369 20.3684 33.1464 20.6732 33.4342C21.4862 34.2018 22.3386 33.3987 21.608 32.5535L21.3216 32.2223L21.5291 31.7487C22.1667 30.2933 21.8829 28.6744 20.8031 27.6073C20.5526 27.3597 20.1715 27.0758 19.9561 26.9762C19.4611 26.7475 18.4068 26.6834 17.9121 26.8521ZM6.07999 28.2244C6.38303 28.541 6.36014 29.0402 6.02915 29.3312C5.79756 29.5349 5.71679 29.5524 5.00731 29.5524H4.23702V28.7835V28.0146H5.05816C5.8211 28.0146 5.89361 28.0295 6.07999 28.2244ZM12.6049 28.2398C12.8852 28.5329 12.8925 28.9426 12.6232 29.27C12.4352 29.4986 12.3878 29.511 11.6014 29.5391L10.7767 29.5684V28.7916V28.0146H11.5831C12.3453 28.0146 12.4012 28.0269 12.6049 28.2398ZM19.4827 28.1741C20.2375 28.5333 20.7458 29.5329 20.6315 30.4332C20.585 30.7998 20.4843 31.1178 20.3722 31.2526C20.3565 31.2714 20.1607 31.108 19.9371 30.8895C19.4789 30.4416 19.1486 30.3715 18.8696 30.663C18.5842 30.9613 18.6533 31.3421 19.0705 31.7699C19.2709 31.9755 19.4178 32.1724 19.397 32.2075C19.319 32.3394 18.7202 32.3778 18.3325 32.2758C18.0294 32.196 17.8287 32.0631 17.5184 31.7368C17.0508 31.2451 16.9077 30.8601 16.9077 30.0932C16.9077 28.625 18.2806 27.6018 19.4827 28.1741ZM6.72301 31.0967C6.98885 31.4269 6.994 31.7774 6.73756 32.0892C6.54137 32.3279 6.53532 32.329 5.38874 32.3567L4.23702 32.3845V31.6092V30.8339H5.37419H6.51137L6.72301 31.0967ZM13.1681 31.0034C13.4276 31.2168 13.5125 31.5568 13.3858 31.8762C13.2234 32.286 12.9499 32.3716 11.8027 32.3716H10.7767V31.6027V30.8339H11.8693C12.8352 30.8339 12.9858 30.8535 13.1681 31.0034Z" fill="black"/>
</svg>
