<svg width="50" height="50" viewBox="0 0 50 50" fill="none" xmlns="http://www.w3.org/2000/svg">
<g clip-path="url(#clip0_416_5)">
<path d="M8.72529 23.8464C8.29014 23.8464 7.9375 24.1991 7.9375 24.6342V24.7532C7.9375 25.1883 8.29014 25.541 8.72529 25.541C9.16035 25.541 9.51309 25.1883 9.51309 24.7532V24.6342C9.51309 24.1992 9.16045 23.8464 8.72529 23.8464Z" fill="black"/>
<path d="M12.5524 23.8464C12.1173 23.8464 11.7646 24.1991 11.7646 24.6342V24.7532C11.7646 25.1883 12.1173 25.541 12.5524 25.541C12.9876 25.541 13.3402 25.1883 13.3402 24.7532V24.6342C13.3402 24.1992 12.9876 23.8464 12.5524 23.8464Z" fill="black"/>
<path d="M16.3786 23.8464C15.9435 23.8464 15.5908 24.1991 15.5908 24.6342V24.7532C15.5908 25.1883 15.9435 25.541 16.3786 25.541C16.8138 25.541 17.1664 25.1883 17.1664 24.7532V24.6342C17.1663 24.1992 16.8137 23.8464 16.3786 23.8464Z" fill="black"/>
<path d="M20.2058 23.8464C19.7706 23.8464 19.418 24.1991 19.418 24.6342V24.7532C19.418 25.1883 19.7706 25.541 20.2058 25.541C20.6409 25.541 20.9936 25.1883 20.9936 24.7532V24.6342C20.9936 24.1992 20.6409 23.8464 20.2058 23.8464Z" fill="black"/>
<path d="M10.6394 26.7605C10.2042 26.7605 9.85156 27.1131 9.85156 27.5483V27.667C9.85156 28.1022 10.2042 28.4548 10.6394 28.4548C11.0745 28.4548 11.4271 28.1022 11.4271 27.667V27.5483C11.4271 27.1131 11.0745 26.7605 10.6394 26.7605Z" fill="black"/>
<path d="M14.4655 26.7605C14.0304 26.7605 13.6777 27.1131 13.6777 27.5483V27.667C13.6777 28.1022 14.0304 28.4548 14.4655 28.4548C14.9007 28.4548 15.2533 28.1022 15.2533 27.667V27.5483C15.2533 27.1131 14.9007 26.7605 14.4655 26.7605Z" fill="black"/>
<path d="M18.2897 26.7605C17.8546 26.7605 17.502 27.1131 17.502 27.5483V27.667C17.502 28.1022 17.8546 28.4548 18.2897 28.4548C18.7249 28.4548 19.0775 28.1022 19.0775 27.667V27.5483C19.0775 27.1131 18.7248 26.7605 18.2897 26.7605Z" fill="black"/>
<path d="M49.7852 19.1414C49.6364 18.9836 49.4291 18.8942 49.2122 18.8942H48.7653V7.21319C48.7653 6.77803 48.4126 6.42539 47.9775 6.42539H44.4619V3.78779C44.4619 3.35264 44.1093 3 43.6742 3H39.3711C38.9361 3 38.5833 3.35264 38.5833 3.78779V6.42539H35.8893V3.78779C35.8893 3.35264 35.5366 3 35.1015 3H30.7982C30.363 3 30.0104 3.35264 30.0104 3.78779V6.42539H26.4948C26.0597 6.42539 25.707 6.77803 25.707 7.21319V18.8942H25.3593C25.1425 18.8942 24.9352 18.9836 24.7863 19.1414C24.6375 19.2991 24.5603 19.5112 24.5729 19.7278L24.7659 23.0395C24.1841 22.6766 23.538 22.3498 22.8289 22.0623C19.6676 20.781 16.1746 20.5897 14.3739 20.5897C12.5647 20.5897 9.04981 20.7787 5.83741 22.0445C2.61533 23.3143 0.656641 25.3512 0.173047 27.9351C0.170215 27.9504 0.167774 27.9655 0.165918 27.9809C0.10918 28.4286 -0.124805 30.7178 0.846876 31.8205C1.19785 32.2188 1.66436 32.4292 2.19629 32.4292H25.3137L25.357 33.1739H1.07715C0.641993 33.1739 0.289356 33.5266 0.289356 33.9617C0.289356 34.3969 0.641993 34.7495 1.07715 34.7495H25.449L25.5034 35.6834H1.86338C1.42822 35.6834 1.07559 36.0361 1.07559 36.4712V38.903C0.433496 39.3925 0.0208985 40.1463 0.0208985 40.9909V41.0095C0.0208985 41.4645 0.140723 41.8932 0.351563 42.2686C0.139746 42.4097 0 42.6505 0 42.9243V43.5799C0 43.6016 0.000585938 43.623 0.0015625 43.6444C0.000585938 43.666 0 43.6874 0 43.7091V44.446C0 44.468 0.000585938 44.4893 0.0015625 44.5108C0.000585938 44.5322 0 44.5536 0 44.5752V45.4794C0 46.7543 0.790235 47.7531 1.79883 47.7531H5.53858C5.97373 47.7531 6.32637 47.4004 6.32637 46.9653C6.32637 46.5301 5.97373 46.1775 5.53858 46.1775H1.81738C1.73955 46.1303 1.57559 45.8839 1.57559 45.4794L1.57549 44.5807L1.57725 44.541C1.57813 44.5211 1.57813 44.5012 1.57734 44.4815L1.57559 43.7144V43.7119H13.2602L15.0511 45.528C15.1222 45.6 15.206 45.6565 15.2971 45.6963C15.3008 45.6979 15.3043 45.7 15.308 45.7016C15.3113 45.703 15.315 45.7039 15.3183 45.7053C15.4108 45.7425 15.5103 45.7626 15.6119 45.7626C15.8228 45.7626 16.0248 45.6781 16.1729 45.5281L17.9639 43.712H26.7149H26.963L26.9627 44.4462C26.9619 44.4616 26.9613 44.4769 26.961 44.4924C26.9607 44.5048 26.9607 44.5172 26.961 44.5296C26.9613 44.5448 26.962 44.5598 26.963 44.5751V45.4793C26.963 45.526 26.9604 45.57 26.9564 45.6124C26.9546 45.6309 26.9518 45.6484 26.9493 45.6662C26.9463 45.6887 26.9433 45.7111 26.9393 45.7322C26.9354 45.7526 26.9309 45.772 26.9263 45.7911C26.9223 45.8076 26.9183 45.8237 26.9139 45.8392C26.9082 45.8589 26.9022 45.8781 26.8957 45.8964C26.8915 45.9086 26.8871 45.9203 26.8827 45.9318C26.8751 45.9514 26.8672 45.9704 26.8588 45.988C26.8558 45.9946 26.8528 46.0006 26.8495 46.0067C26.8137 46.0777 26.7733 46.1324 26.7338 46.1656C26.731 46.168 26.7286 46.1709 26.7258 46.1734C26.7244 46.1744 26.7227 46.1762 26.7213 46.1771H7.9545C7.51934 46.1771 7.1667 46.5297 7.1667 46.9649C7.1667 47.4 7.51934 47.7527 7.9545 47.7527H26.7396C27.0054 47.7527 27.2554 47.6817 27.4805 47.5562H47.6325C48.0497 47.5562 48.3946 47.2308 48.4189 46.8143L49.5834 26.845C49.6087 26.4107 49.2772 26.038 48.8428 26.0127C48.4091 25.9879 48.0358 26.3189 48.0105 26.7533L46.8892 45.9808H28.4956C28.496 45.9782 28.4961 45.9754 28.4967 45.9728C28.508 45.9058 28.5165 45.8372 28.5232 45.7681C28.5245 45.7545 28.5268 45.7413 28.5279 45.7278C28.5346 45.6462 28.5385 45.5635 28.5385 45.4793V44.5751C28.5385 44.555 28.5379 44.5348 28.5368 44.511C28.5379 44.4895 28.5385 44.468 28.5385 44.4459V43.709C28.5385 43.689 28.5379 43.6689 28.5368 43.6448C28.5379 43.6233 28.5385 43.6017 28.5385 43.5799V42.9243C28.5385 42.8986 28.537 42.8732 28.5346 42.8481C28.5337 42.8398 28.5322 42.8316 28.5313 42.8234C28.5292 42.8068 28.5269 42.7903 28.5238 42.7742C28.5219 42.7645 28.5196 42.7551 28.5173 42.7455C28.514 42.7309 28.5104 42.7165 28.5062 42.7024C28.5033 42.6926 28.5001 42.6829 28.4969 42.6733C28.4924 42.6597 28.4874 42.6463 28.4821 42.633C28.4783 42.6236 28.4745 42.6141 28.4704 42.6049C28.4646 42.5918 28.4583 42.5789 28.4518 42.5662C28.4474 42.5576 28.443 42.5488 28.4382 42.5403C28.4307 42.5268 28.4226 42.5138 28.4143 42.5009C28.4098 42.4938 28.4055 42.4865 28.4006 42.4795C28.3894 42.4631 28.3773 42.4473 28.3649 42.4318C28.3625 42.4288 28.3605 42.4257 28.358 42.4228C28.5901 42.0685 28.7372 41.6587 28.7732 41.2194C28.7742 41.2073 28.7751 41.1953 28.776 41.1832C28.7799 41.1258 28.7825 41.068 28.7825 41.0096V40.991C28.7825 40.9427 28.7811 40.895 28.7783 40.8474C28.7775 40.8329 28.7759 40.8185 28.7748 40.804C28.7724 40.7709 28.7698 40.7378 28.7662 40.7052C28.7644 40.6884 28.7617 40.6718 28.7595 40.6551C28.7555 40.6249 28.7514 40.595 28.7465 40.5651C28.7436 40.5474 28.74 40.5299 28.7366 40.5122C28.7313 40.4838 28.7257 40.4555 28.7194 40.4274C28.7153 40.4091 28.7107 40.3909 28.7062 40.3728C28.6994 40.3459 28.6925 40.3192 28.6851 40.2926C28.6797 40.2737 28.674 40.2548 28.6683 40.236C28.6607 40.2111 28.6526 40.1863 28.6442 40.1617C28.6373 40.1416 28.6303 40.1217 28.623 40.1019C28.6147 40.0796 28.6061 40.0575 28.5973 40.0355C28.5886 40.014 28.5798 39.9924 28.5707 39.9711C28.5625 39.9522 28.5539 39.9336 28.5453 39.9151C28.5343 39.8912 28.5234 39.8674 28.5116 39.844C28.5047 39.8302 28.4974 39.8166 28.4903 39.8029C28.4759 39.7752 28.4614 39.7476 28.4461 39.7205C28.4443 39.7172 28.4421 39.7139 28.4403 39.7106C28.3136 39.4894 28.1547 39.2867 27.9688 39.1082C27.9661 39.1057 27.9636 39.1032 27.961 39.1007C27.9327 39.0739 27.9038 39.0475 27.8743 39.0216C27.8693 39.0172 27.8642 39.0128 27.859 39.0083C27.8428 38.9944 27.8272 38.98 27.8107 38.9664V36.4711C27.8107 36.4446 27.8093 36.4183 27.8067 36.3923C27.8058 36.3835 27.804 36.375 27.8029 36.3661C27.8006 36.3492 27.7985 36.3324 27.7951 36.3158C27.7932 36.3056 27.7902 36.2957 27.7878 36.2856C27.7842 36.2708 27.7809 36.2561 27.7766 36.2416C27.7735 36.2312 27.7695 36.2212 27.7658 36.211C27.7612 36.1974 27.7565 36.1838 27.751 36.1706C27.7468 36.1604 27.7418 36.1503 27.7371 36.1403C27.7314 36.1278 27.7256 36.1152 27.7192 36.103C27.7139 36.093 27.708 36.0833 27.7024 36.0737C27.6955 36.062 27.6887 36.0502 27.6814 36.039C27.6752 36.0295 27.6685 36.0204 27.6618 36.0113C27.6539 36.0003 27.6462 35.9895 27.6378 35.9791C27.6308 35.9703 27.6232 35.9618 27.6157 35.9532C27.607 35.9431 27.5981 35.9332 27.5889 35.9236C27.581 35.9154 27.5728 35.9075 27.5647 35.8998C27.555 35.8907 27.5452 35.8817 27.5352 35.8731C27.5266 35.8657 27.5176 35.8586 27.5087 35.8516C27.4982 35.8433 27.4875 35.8353 27.4766 35.8276C27.4673 35.821 27.4579 35.8148 27.4485 35.8086C27.4371 35.8014 27.4257 35.7945 27.414 35.7877C27.4041 35.7821 27.3942 35.7766 27.384 35.7713C27.372 35.7652 27.3598 35.7592 27.3474 35.7536C27.337 35.749 27.3266 35.7444 27.3159 35.7401C27.3031 35.7349 27.2901 35.7303 27.277 35.7258C27.2662 35.7221 27.2557 35.7186 27.2447 35.7154C27.2312 35.7114 27.2174 35.708 27.2034 35.7047C27.1925 35.7021 27.1816 35.6995 27.1704 35.6974C27.1563 35.6947 27.1417 35.6928 27.1273 35.6907C27.116 35.6893 27.1049 35.6876 27.0936 35.6866C27.0897 35.6864 27.0859 35.6855 27.0821 35.6853L27.0275 34.7492H27.809C28.2442 34.7492 28.5968 34.3966 28.5968 33.9615C28.5968 33.5263 28.2442 33.1737 27.809 33.1737H26.9355L26.8918 32.4237C26.9179 32.4206 26.9437 32.4163 26.9694 32.4107C28.0577 32.1725 28.7031 30.1572 28.3785 28.01C28.3773 28.0019 28.376 27.9939 28.3744 27.986C28.3592 27.9027 28.3424 27.82 28.3241 27.7377C28.314 27.6914 28.3022 27.6456 28.291 27.5996C28.2827 27.5655 28.275 27.5314 28.2662 27.4977C28.2494 27.4328 28.2311 27.3687 28.2124 27.3046C28.2085 27.2913 28.2051 27.278 28.2011 27.2648C27.875 26.1697 27.2785 25.1859 26.4196 24.3299L26.1945 20.4694H30.7983H31.8782V21.9651C31.8782 23.3061 32.9422 24.397 34.2499 24.397H35.068H35.1015H39.371H40.3216C41.6294 24.397 42.6934 23.306 42.6934 21.9651V20.4695H43.6742H48.3771L48.1698 24.0235C48.1445 24.4578 48.4759 24.8305 48.9104 24.8558C49.3423 24.8812 49.7174 24.5495 49.7427 24.1152L49.9987 19.7277C50.0113 19.5113 49.9341 19.2991 49.7852 19.1414ZM2.65117 37.2589H26.2348V38.3206H25.9907H21.3973H9.82667H2.81289H2.65117V37.2589ZM2.81289 42.1042C2.14209 42.1042 1.59649 41.6131 1.59649 41.0093V40.9907C1.59649 40.3871 2.14219 39.896 2.81289 39.896H9.49708V39.8961L11.6746 42.1042H2.81289ZM15.6118 43.8529L11.7099 39.8961H19.514L15.6118 43.8529ZM26.8936 40.2598C26.8937 40.2599 26.8939 40.2601 26.894 40.2602C26.9154 40.2816 26.9359 40.3037 26.9554 40.3267C26.9562 40.3276 26.9568 40.3284 26.9575 40.3292C27.0313 40.416 27.09 40.513 27.1322 40.6165C27.1361 40.6258 27.1401 40.6349 27.1435 40.6443C27.1503 40.6624 27.1561 40.6809 27.1618 40.6994C27.1662 40.7139 27.1705 40.7285 27.1743 40.7431C27.1785 40.7592 27.1824 40.7753 27.1858 40.7916C27.1898 40.811 27.1929 40.8306 27.1957 40.8502C27.1976 40.8631 27.1998 40.8761 27.2012 40.8891C27.2046 40.9226 27.207 40.9566 27.207 40.9909V41.0095C27.207 41.0436 27.2046 41.0772 27.2013 41.1105C27.2003 41.12 27.1989 41.1293 27.1977 41.1386C27.1944 41.164 27.1902 41.1892 27.1849 41.2141C27.1832 41.2223 27.1817 41.2305 27.1797 41.2387C27.1641 41.3048 27.1418 41.3687 27.1135 41.4296C27.1112 41.4344 27.1088 41.4392 27.1065 41.444C27.0935 41.4708 27.0794 41.4973 27.064 41.5231C27.0615 41.5272 27.0593 41.5314 27.0568 41.5354C27.0212 41.5935 26.98 41.6483 26.9338 41.6993C26.928 41.7057 26.9221 41.7118 26.9161 41.7179C26.9 41.7349 26.8832 41.7514 26.866 41.7675C26.8559 41.777 26.8455 41.7866 26.835 41.7956C26.8229 41.8062 26.8103 41.816 26.7978 41.8261C26.6939 41.9086 26.5737 41.9767 26.4391 42.025C26.4361 42.0261 26.4333 42.0279 26.4303 42.029C26.2938 42.0769 26.1458 42.1042 25.9906 42.1042H19.5492L21.7268 39.8961H25.9907V39.896C26.0976 39.896 26.2007 39.9098 26.2995 39.9331C26.3028 39.934 26.3056 39.9355 26.3089 39.9363C26.5402 39.9929 26.7408 40.1075 26.8936 40.2598ZM26.7791 28.049C26.7948 28.1182 26.8093 28.1877 26.8223 28.2577C27.0263 29.6249 26.7144 30.5489 26.5347 30.8534H26.0569H2.19629C2.11768 30.8535 2.08037 30.8368 2.0293 30.7791C1.65947 30.3604 1.62998 29.0028 1.72617 28.2014C2.58174 23.7469 9.06993 22.1652 14.374 22.1652C19.5154 22.1652 25.7883 23.7118 26.7791 28.049ZM30.0105 18.8902H27.2827V8.00098H30.0105V18.8902ZM34.3137 6.98623C34.292 7.05821 34.2802 7.13418 34.2802 7.21319V22.8219H34.2499C33.811 22.8218 33.4537 22.4377 33.4537 21.9654V19.682C33.4537 19.2469 33.1011 18.8943 32.6659 18.8943H31.586V7.21319V4.57559H34.3137V6.98623ZM38.5833 22.8219H35.8893V8.00098H38.5833V22.8219ZM42.8865 7.21319V18.8942H41.9056C41.4704 18.8942 41.1178 19.2468 41.1178 19.6819V21.9653C41.1178 22.4376 40.7607 22.8217 40.3216 22.8217H40.1588V7.21319V4.57559H42.8865V7.21319ZM47.1898 18.8902H44.462V8.00098H47.1898V18.8902Z" fill="black"/>
</g>
<defs>
<clipPath id="clip0_416_5">
<rect width="50" height="50" fill="white"/>
</clipPath>
</defs>
</svg>
