<svg width="50" height="50" viewBox="0 0 50 50" fill="none" xmlns="http://www.w3.org/2000/svg">
<path d="M32.7942 38.6779C31.9565 37.2118 31.4223 33.0669 32.9375 28.8273C33.2416 27.975 33.5824 26.958 33.8052 25.8792C34.2533 23.7025 34.1312 21.7172 33.4102 19.4421C32.9753 18.0667 32.3208 16.6053 31.4088 14.9734C30.2416 12.8854 28.9434 6.75303 29.3443 5.99375C29.8112 5.37109 29.6291 4.47031 29.3419 3.66914C29.8635 3.29414 30.1826 2.68877 30.1826 2.02549C30.1826 0.908398 29.2735 0 28.1563 0L21.8448 0C20.7276 0 19.8192 0.908399 19.8192 2.02559C19.8192 2.68887 20.1376 3.29424 20.6592 3.66924C20.3721 4.47041 20.1888 5.37002 20.6499 5.98311C21.0585 6.75361 19.7609 12.886 18.593 14.9735C17.681 16.6048 17.026 18.0662 16.591 19.4416C15.87 21.7166 15.7479 23.7021 16.1966 25.8793C16.4188 26.9593 16.7601 27.9762 17.065 28.8281C18.5789 33.0674 18.0448 37.2119 17.207 38.6779C16.3752 40.1335 14.3259 46.2375 17.4688 48.2927C19.7838 49.8061 22.2227 50 24.0892 50L25.0011 49.994L25.9131 50C27.779 50 30.2172 49.8061 32.5324 48.2928C35.6741 46.2381 33.626 40.1335 32.7942 38.6779ZM22.4025 4.94668C22.4184 4.84707 22.4714 4.6207 22.6502 4.15791L27.3511 4.15791C27.5338 4.63125 27.5857 4.85527 27.6017 4.94199C27.2238 5.56211 27.0015 6.77539 27.7892 10.345C27.9035 10.8638 28.0367 11.408 28.1812 11.9462H21.8202C21.9645 11.408 22.0978 10.8638 22.2122 10.3456C22.998 6.78496 22.7787 5.56865 22.4025 4.94668Z" fill="black"/>
</svg>
