<svg width="50" height="50" viewBox="0 0 50 50" fill="none" xmlns="http://www.w3.org/2000/svg">
<path fill-rule="evenodd" clip-rule="evenodd" d="M19.3155 0.103582C18.8593 0.240954 18.2372 0.936213 18.0947 1.46784C18.0121 1.77607 17.9853 2.46098 18.0068 3.71022C18.0362 5.41688 18.0497 5.53111 18.2713 5.94381C18.3998 6.18302 18.6701 6.49584 18.872 6.63897L19.2391 6.89927L19.2191 7.52208C19.1519 9.62143 18.6567 11.7672 17.8385 13.5049C17.2898 14.6701 16.603 15.7278 15.5177 17.0786C13.8368 19.1708 13.5346 19.567 13.0603 20.3005C12.1682 21.6801 11.6166 23.0232 11.2356 24.7429C11.0463 25.5978 11.0402 25.8963 11.0085 35.7642C10.9862 42.7514 11.0074 46.0641 11.0766 46.4127C11.411 48.0959 12.6061 49.3951 14.2254 49.8359C15.0289 50.0547 35.5274 50.0547 36.331 49.8359C37.91 49.4061 39.0215 48.2445 39.4328 46.5943C39.5518 46.1169 39.5721 44.6291 39.5714 36.4142C39.5706 26.5305 39.5458 25.7398 39.1884 24.2059C38.6912 22.0721 37.7765 20.4422 35.5449 17.7132C33.3421 15.0196 32.5327 13.5836 31.8748 11.202C31.6104 10.2449 31.3758 8.69204 31.3343 7.62362L31.3063 6.90698L31.6789 6.64288C31.8838 6.4976 32.1566 6.18302 32.285 5.94381C32.505 5.53423 32.5205 5.40926 32.5508 3.80024C32.5915 1.64026 32.509 1.19768 31.9581 0.622121C31.7253 0.378815 31.4054 0.158551 31.1967 0.0980169C30.7347 -0.0361335 19.7622 -0.0309589 19.3155 0.103582ZM30.9771 1.65227C31.1493 1.83221 31.1639 1.97768 31.1639 3.50733C31.1639 5.03698 31.1493 5.18246 30.9771 5.3624C30.7944 5.55327 30.6657 5.55767 25.2782 5.55767C19.8907 5.55767 19.7619 5.55327 19.5793 5.3624C19.4071 5.18246 19.3924 5.03698 19.3924 3.50733C19.3924 1.97768 19.4071 1.83221 19.5793 1.65227C19.7619 1.46139 19.8907 1.457 25.2782 1.457C30.6657 1.457 30.7944 1.46139 30.9771 1.65227ZM29.895 7.24187C29.9183 7.36264 29.9607 7.85697 29.9891 8.34026C30.0527 9.42235 30.2604 10.6792 30.5459 11.7095L30.7622 12.4897H25.2683H19.7745L19.9146 12.0748C20.1531 11.3685 20.5115 9.33458 20.5665 8.37531C20.5953 7.87269 20.6381 7.36264 20.6614 7.24187L20.7039 7.02219H25.2782H29.8524L29.895 7.24187ZM31.6226 14.5226C32.093 15.4963 32.973 16.7872 34.2686 18.4035C35.827 20.3478 36.4717 21.2452 36.9031 22.0708C37.5361 23.2819 37.9636 24.798 38.1176 26.3783L38.1724 26.9397H32.375H26.5776L26.3484 27.1794C26.0681 27.4722 26.0558 27.8057 26.3127 28.147L26.5063 28.4042H32.3386H38.1708V34.897V41.3897H32.3743H26.5776L26.3484 41.6294C26.0632 41.9274 26.0527 42.3285 26.3221 42.6283L26.5253 42.8542H32.3556H38.1859L38.155 44.5872C38.1269 46.1637 38.1046 46.3617 37.9081 46.7785C37.6228 47.3838 37.0938 47.941 36.5279 48.232L36.0687 48.4682H25.2782H14.4876L14.049 48.2424C13.4892 47.9543 12.9241 47.3637 12.6484 46.7787C12.4518 46.3616 12.4295 46.1639 12.4014 44.5872L12.3705 42.8542H18.141H23.9115L24.1278 42.642C24.4049 42.3699 24.4107 41.9159 24.1408 41.6156L23.9376 41.3897H18.1617H12.3856V34.897V28.4042H18.1486H23.9115L24.1278 28.192C24.4049 27.9199 24.4107 27.4659 24.1408 27.1656L23.9376 26.9397H18.1584H12.3791L12.434 26.4271C12.6685 24.233 13.1261 22.8444 14.147 21.2281C14.3845 20.8522 15.2453 19.7099 16.0601 18.6896C17.5784 16.7882 18.4496 15.525 18.9338 14.5226L19.2083 13.9543H25.2782H31.3481L31.6226 14.5226ZM14.6346 30.8095C14.447 31.0586 14.4409 31.1743 14.4409 34.5088C14.4409 37.7535 14.4512 37.9641 14.6197 38.1813C14.7972 38.4103 14.812 38.4118 16.7451 38.4118C18.5761 38.4118 18.7147 38.3989 19.0788 38.1955C19.5935 37.9078 20.0906 37.2844 20.2349 36.7457C20.4635 35.8928 20.1332 34.7534 19.5228 34.2886C19.2829 34.1059 19.2806 34.0945 19.4282 33.7963C19.6492 33.3497 19.6272 32.3771 19.3842 31.8525C19.1452 31.3367 18.5823 30.8173 18.0978 30.6656C17.8904 30.6005 17.1151 30.5522 16.2821 30.5522H14.8282L14.6346 30.8095ZM22.1077 30.7412C21.9199 30.9375 21.9149 31.0363 21.9149 34.4993V38.0559L22.1611 38.2583C22.389 38.4457 22.5294 38.4606 24.0593 38.4606C26.0725 38.4606 26.5032 38.3572 27.1039 37.7294C28.0023 36.7905 27.9977 35.4452 27.0928 34.4568L26.7792 34.1143L26.9249 33.6758C27.2694 32.6378 26.8751 31.4727 25.9842 30.8965C25.5281 30.6015 25.5245 30.6009 23.9139 30.5704C22.3876 30.5415 22.2901 30.5507 22.1077 30.7412ZM31.4709 30.6881C30.4709 31.0293 29.7459 31.7176 29.2616 32.7858C28.9882 33.389 28.9685 33.5048 28.9685 34.5085C28.9685 35.5276 28.9847 35.619 29.2754 36.2361C30.0561 37.8934 31.662 38.7388 33.2312 38.3187C33.5573 38.2314 33.9216 38.0931 34.041 38.0113C34.2463 37.8707 34.2782 37.8816 34.6265 38.2105C35.5556 39.0878 36.5298 38.1699 35.6948 37.204L35.3676 36.8255L35.6047 36.2843C36.3333 34.621 36.009 32.7708 34.775 31.5512C34.4887 31.2683 34.0532 30.9437 33.807 30.83C33.2412 30.5685 32.0363 30.4953 31.4709 30.6881ZM17.9486 32.2564C18.2949 32.6183 18.2687 33.1888 17.8905 33.5214C17.6258 33.7542 17.5335 33.7742 16.7226 33.7742H15.8423V32.8955V32.0167H16.7808C17.6527 32.0167 17.7356 32.0337 17.9486 32.2564ZM25.4056 32.2741C25.726 32.609 25.7343 33.0773 25.4265 33.4514C25.2117 33.7127 25.1575 33.7269 24.2587 33.7589L23.3163 33.7924V32.9046V32.0167H24.2378C25.1089 32.0167 25.1728 32.0308 25.4056 32.2741ZM33.266 32.1989C34.1286 32.6095 34.7095 33.7519 34.5789 34.7808C34.5257 35.1997 34.4106 35.5632 34.2825 35.7172C34.2645 35.7388 34.0408 35.552 33.7853 35.3023C33.2616 34.7904 32.8841 34.7103 32.5653 35.0434C32.2391 35.3844 32.318 35.8195 32.7949 36.3085C33.0238 36.5434 33.1917 36.7684 33.168 36.8086C33.0789 36.9593 32.3945 37.0032 31.9514 36.8866C31.605 36.7954 31.3756 36.6436 31.021 36.2706C30.4866 35.7087 30.3231 35.2687 30.3231 34.3922C30.3231 32.7143 31.8921 31.545 33.266 32.1989ZM18.6834 35.5391C18.9873 35.9165 18.9931 36.317 18.7001 36.6733C18.4759 36.9461 18.4689 36.9474 17.1586 36.9791L15.8423 37.0109V36.1248V35.2387H17.1419H18.4416L18.6834 35.5391ZM26.0492 35.4324C26.3458 35.6763 26.4428 36.0649 26.2981 36.4299C26.1125 36.8983 25.7999 36.9961 24.4888 36.9961H23.3163V36.1174V35.2387H24.5649C25.6688 35.2387 25.8409 35.2611 26.0492 35.4324Z" fill="black"/>
</svg>
